<svg width="25" height="25" viewBox="0 0 25 25" fill="none" xmlns="http://www.w3.org/2000/svg">
<path fill-rule="evenodd" clip-rule="evenodd" d="M1.83 1.83C0 3.6625 0 6.6075 0 12.5C0 18.3925 0 21.3387 1.83 23.1688C3.6625 25 6.6075 25 12.5 25C18.3925 25 21.3387 25 23.1688 23.1688C25 21.34 25 18.3925 25 12.5C25 6.6075 25 3.66125 23.1688 1.83C21.34 0 18.3925 0 12.5 0C6.6075 0 3.66125 0 1.83 1.83ZM14.6875 10C14.6875 10.5175 15.1075 10.9375 15.625 10.9375H16.4875L13.9713 13.4537C13.9422 13.4829 13.9077 13.5059 13.8698 13.5217C13.8318 13.5374 13.7911 13.5456 13.75 13.5456C13.7089 13.5456 13.6682 13.5374 13.6302 13.5217C13.5923 13.5059 13.5578 13.4829 13.5287 13.4537L11.5463 11.4713C11.1361 11.0613 10.5799 10.8311 10 10.8311C9.42011 10.8311 8.86394 11.0613 8.45375 11.4713L5.5875 14.3375C5.49539 14.4233 5.42151 14.5268 5.37027 14.6418C5.31903 14.7568 5.29148 14.881 5.28926 15.0068C5.28704 15.1327 5.3102 15.2578 5.35735 15.3745C5.4045 15.4912 5.47468 15.5973 5.5637 15.6863C5.65273 15.7753 5.75877 15.8455 5.8755 15.8927C5.99224 15.9398 6.11727 15.963 6.24315 15.9607C6.36903 15.9585 6.49317 15.931 6.60817 15.8797C6.72317 15.8285 6.82667 15.7546 6.9125 15.6625L9.77875 12.7963C9.80778 12.7671 9.84226 12.7441 9.88023 12.7283C9.91819 12.7126 9.9589 12.7044 10 12.7044C10.0411 12.7044 10.0818 12.7126 10.1198 12.7283C10.1577 12.7441 10.1922 12.7671 10.2213 12.7963L12.2037 14.7787C12.6139 15.1887 13.1701 15.4189 13.75 15.4189C14.3299 15.4189 14.8861 15.1887 15.2963 14.7787L17.8125 12.2638V13.125C17.8125 13.3736 17.9113 13.6121 18.0871 13.7879C18.2629 13.9637 18.5014 14.0625 18.75 14.0625C18.9986 14.0625 19.2371 13.9637 19.4129 13.7879C19.5887 13.6121 19.6875 13.3736 19.6875 13.125V10C19.6875 9.75136 19.5887 9.5129 19.4129 9.33709C19.2371 9.16127 18.9986 9.0625 18.75 9.0625H15.625C15.3764 9.0625 15.1379 9.16127 14.9621 9.33709C14.7863 9.5129 14.6875 9.75136 14.6875 10Z" fill="#4F95F4"/>
</svg>
