<svg width="33" height="32" viewBox="0 0 33 32" fill="none" xmlns="http://www.w3.org/2000/svg">
<path d="M19.6466 28.6668C25.7135 28.2651 30.545 23.364 30.9424 17.2115C31.0192 16.008 31.0192 14.7609 30.9424 13.5574C30.545 7.40636 25.7135 2.50813 19.6466 2.10357C17.5511 1.96548 15.4489 1.96548 13.3534 2.10357C7.28645 2.50668 2.45492 7.40636 2.05761 13.5589C1.9808 14.7757 1.9808 15.9961 2.05761 17.213C2.20261 19.4533 3.19299 21.5283 4.36027 23.2799C5.03744 24.5052 4.59083 26.035 3.88466 27.3734C3.37714 28.3376 3.12194 28.8191 3.32639 29.1671C3.5294 29.5151 3.98616 29.5267 4.89823 29.5484C6.70353 29.5919 7.92011 29.0815 8.88584 28.3695C9.4325 27.965 9.70656 27.7634 9.89506 27.7402C10.0836 27.717 10.4562 27.8707 11.1986 28.1752C11.8657 28.4508 12.6414 28.6204 13.352 28.6683C15.4183 28.8046 17.5774 28.8046 19.648 28.6683" stroke="#4F95F4" stroke-width="3" stroke-linecap="round" stroke-linejoin="round"/>
<path d="M9.97461 20.126L12.6456 12.1131C12.7126 11.9131 12.8408 11.7393 13.012 11.6161C13.1832 11.4929 13.3888 11.4267 13.5997 11.4267C13.8106 11.4267 14.0162 11.4929 14.1874 11.6161C14.3586 11.7393 14.4868 11.9131 14.5538 12.1131L17.2248 20.126M21.5749 11.4258V20.126M11.4246 17.2259H15.7748" stroke="#4F95F4" stroke-width="3" stroke-linecap="round" stroke-linejoin="round"/>
</svg>
