<svg width="39" height="39" viewBox="0 0 39 39" fill="none" xmlns="http://www.w3.org/2000/svg">
<path d="M19.5 19.5C17.7125 19.5 16.1823 18.8635 14.9094 17.5906C13.6365 16.3177 13 14.7875 13 13C13 11.2125 13.6365 9.68229 14.9094 8.40938C16.1823 7.13646 17.7125 6.5 19.5 6.5C21.2875 6.5 22.8177 7.13646 24.0906 8.40938C25.3635 9.68229 26 11.2125 26 13C26 14.7875 25.3635 16.3177 24.0906 17.5906C22.8177 18.8635 21.2875 19.5 19.5 19.5ZM6.5 32.5V27.95C6.5 27.0292 6.73725 26.1831 7.21175 25.4117C7.68625 24.6404 8.31567 24.0511 9.1 23.6438C10.7792 22.8042 12.4854 22.1747 14.2188 21.7555C15.9521 21.3362 17.7125 21.1261 19.5 21.125C21.2875 21.1239 23.0479 21.3341 24.7812 21.7555C26.5146 22.1769 28.2208 22.8063 29.9 23.6438C30.6854 24.05 31.3154 24.6393 31.7899 25.4117C32.2644 26.1842 32.5011 27.0303 32.5 27.95V32.5H6.5Z" fill="#03507D"/>
</svg>
