<svg width="24" height="24" viewBox="0 0 24 24" fill="none" xmlns="http://www.w3.org/2000/svg">
<path d="M11.7347 2.40039C7.95162 2.40039 4.88484 5.62394 4.88484 9.60039V13.9033L4.07758 14.7519C3.75107 15.0951 3.6534 15.6112 3.8301 16.0596C4.0068 16.508 4.42309 16.8004 4.88484 16.8004H18.5845C19.0463 16.8004 19.4626 16.508 19.6393 16.0596C19.816 15.6112 19.7183 15.0951 19.3918 14.7519L18.5845 13.9033V9.60039C18.5845 5.62394 15.5178 2.40039 11.7347 2.40039Z" fill="#03507D"/>
<path d="M11.7347 21.6004C9.84312 21.6004 8.30973 19.9886 8.30973 18.0004H15.1596C15.1596 19.9886 13.6262 21.6004 11.7347 21.6004Z" fill="#03507D"/>
</svg>
