<svg width="24" height="26" viewBox="0 0 24 26" fill="none" xmlns="http://www.w3.org/2000/svg">
<path d="M11.7347 2.79688C7.95162 2.79688 4.88484 6.21288 4.88484 10.4267V14.9866L4.07758 15.8857C3.75107 16.2494 3.6534 16.7964 3.8301 17.2716C4.0068 17.7468 4.42309 18.0566 4.88484 18.0566H18.5845C19.0463 18.0566 19.4626 17.7468 19.6393 17.2716C19.816 16.7964 19.7183 16.2494 19.3918 15.8857L18.5845 14.9866V10.4267C18.5845 6.21288 15.5178 2.79688 11.7347 2.79688Z" fill="#C1C1C1"/>
<path d="M11.7347 23.1431C9.84312 23.1431 8.30973 21.4351 8.30973 19.3282H15.1596C15.1596 21.4351 13.6262 23.1431 11.7347 23.1431Z" fill="#C1C1C1"/>
</svg>
