<svg width="34" height="29" viewBox="0 0 34 29" fill="none" xmlns="http://www.w3.org/2000/svg">
<path d="M25.4997 15.7057H18.4163V21.7474C18.4163 22.0679 18.2671 22.3752 18.0014 22.6018C17.7357 22.8284 17.3754 22.9557 16.9997 22.9557C16.624 22.9557 16.2636 22.8284 15.9979 22.6018C15.7323 22.3752 15.583 22.0679 15.583 21.7474V15.7057H8.49967C8.12395 15.7057 7.76362 15.5784 7.49794 15.3518C7.23226 15.1252 7.08301 14.8179 7.08301 14.4974C7.08301 14.1769 7.23226 13.8696 7.49794 13.643C7.76362 13.4164 8.12395 13.2891 8.49967 13.2891H15.583V7.2474C15.583 6.92693 15.7323 6.61958 15.9979 6.39297C16.2636 6.16637 16.624 6.03906 16.9997 6.03906C17.3754 6.03906 17.7357 6.16637 18.0014 6.39297C18.2671 6.61958 18.4163 6.92693 18.4163 7.2474V13.2891H25.4997C25.8754 13.2891 26.2357 13.4164 26.5014 13.643C26.7671 13.8696 26.9163 14.1769 26.9163 14.4974C26.9163 14.8179 26.7671 15.1252 26.5014 15.3518C26.2357 15.5784 25.8754 15.7057 25.4997 15.7057Z" fill="#03507D"/>
</svg>
